<?xml version="1.0" encoding="UTF-8"?>
<svg id="Layer_1" data-name="Layer 1" xmlns="http://www.w3.org/2000/svg" width="600" height="110.48" viewBox="0 0 600 110.48">
  <defs>
    <style>
      .cls-1 {
        fill: #d8d1ce;
      }
    </style>
  </defs>
  <rect class="cls-1" x="19.11" y="22.79" width="561.79" height="60.16"/>
  <g>
    <path d="m105.34,48.03c.03-1.16.06-2.33.09-3.53.02-1.2.04-2.41.04-3.63,0-1.29-.01-2.53-.04-3.72-.02-1.2-.06-2.36-.1-3.49.18.03.35.05.52.06.17.01.34.02.51.02.33,0,.88-.02,1.66-.07s1.39-.07,1.85-.07c1.5,0,2.65.32,3.47.96.82.64,1.23,1.54,1.23,2.71,0,1.36-.5,2.41-1.51,3.14-1,.73-2.44,1.1-4.31,1.1-.19,0-.42,0-.69-.01-.27-.01-.58-.03-.92-.05v3c-.01.43,0,.94.02,1.53.02.59.05,1.26.09,2.02-.23-.03-.41-.06-.53-.07-.12-.01-.24-.02-.34-.02-.16,0-.32,0-.5.03-.17.02-.36.04-.55.08Zm1.8-7.33c.1,0,.22.01.35.02.13,0,.33,0,.59,0,1.5,0,2.63-.27,3.38-.81s1.13-1.35,1.13-2.44-.31-1.87-.94-2.35c-.63-.48-1.66-.72-3.11-.72-.27,0-.68.02-1.23.07h-.05c0,.46-.02,1.16-.07,2.12-.04.96-.07,1.7-.07,2.22v1.89Z"/>
    <path d="m116.93,48.03c.03-1.23.06-2.44.09-3.62.02-1.18.04-2.36.04-3.54,0-1.31-.01-2.54-.03-3.71s-.05-2.33-.1-3.48c.16.03.32.05.47.06.16.01.33.02.53.02.18,0,.35,0,.51-.02.16-.01.31-.03.46-.06-.06,1.37-.1,2.68-.14,3.94-.03,1.26-.05,2.43-.05,3.52s0,2.17.03,3.13c.02.96.05,1.88.09,2.78.15,0,.32.01.51.02.19,0,.49,0,.92,0,.92,0,1.73-.03,2.44-.08.71-.05,1.32-.13,1.84-.24,0,.06,0,.16-.01.3,0,.14-.01.25-.01.33,0,.06,0,.16.01.31,0,.14,0,.26,0,.34-1.24-.02-2.26-.04-3.07-.05-.81-.01-1.4-.02-1.79-.02-.5,0-.98,0-1.43.02-.46,0-.89.03-1.3.05Z"/>
    <path d="m127.2,48.03c.06-.88.11-1.91.14-3.09.03-1.18.04-2.59.04-4.24,0-1.52-.01-2.84-.04-3.98-.03-1.13-.08-2.15-.14-3.04.29.01.62.02.96.03s.89,0,1.63,0c.96,0,1.81,0,2.56,0s1.5-.02,2.27-.03c0,.06,0,.16-.01.3s-.01.24-.01.32c0,.06,0,.16.01.3s.01.24.01.31c-.79-.07-1.61-.12-2.44-.15-.84-.03-1.68-.05-2.54-.05h-.5c0,.81-.01,1.59-.02,2.33,0,.74,0,1.44,0,2.1v.84h.37c.64,0,1.34-.02,2.11-.05.77-.03,1.59-.07,2.46-.12-.01.15-.02.27-.03.37s-.01.19-.01.28c0,.08,0,.16.01.25,0,.09.02.2.03.34-.34-.06-.76-.1-1.26-.13-.5-.02-1.41-.04-2.72-.04h-.97v1c0,1.2,0,2.17,0,2.92,0,.75,0,1.49.02,2.21h.52c.6,0,1.34-.02,2.21-.06.87-.04,1.81-.1,2.83-.17,0,.07,0,.17-.01.31,0,.14-.01.25-.01.32,0,.07,0,.17.01.31,0,.14.01.24.01.31-.4-.01-.84-.02-1.33-.03-.49,0-1.25,0-2.27,0s-1.83,0-2.38,0c-.54,0-1.05.02-1.52.03Z"/>
    <path d="m135.66,48.03c1.31-2.87,2.5-5.49,3.55-7.87,1.05-2.37,2.03-4.62,2.94-6.75h.4c.98,2.46,1.97,4.9,2.99,7.34,1.01,2.44,2.05,4.86,3.09,7.28-.18-.03-.36-.05-.53-.07-.17-.02-.33-.03-.5-.03s-.33,0-.51.03c-.17.02-.36.04-.56.08-.25-.77-.52-1.55-.82-2.34-.3-.8-.62-1.6-.96-2.42l-.36-.84c-.31-.01-.64-.02-.99-.03-.35,0-.88-.01-1.59-.01s-1.26,0-1.62.01-.68.02-.98.03c-.33.77-.68,1.61-1.02,2.5-.35.89-.73,1.93-1.14,3.11-.12-.03-.23-.06-.35-.08-.12-.02-.23-.03-.35-.03-.1,0-.21,0-.33.03-.12.02-.24.04-.36.08Zm3.91-6.53c.08,0,.29,0,.65,0s.67,0,.94,0c.21,0,.63,0,1.26,0s1.15,0,1.56,0l-.36-.92c-.05-.15-.2-.51-.44-1.07-.24-.56-.69-1.64-1.37-3.21l-2.25,5.21Z"/>
    <path d="m149.62,47.19c.12-.37.22-.74.3-1.11.08-.37.13-.74.16-1.11.31.79.77,1.4,1.38,1.84.61.44,1.31.66,2.09.66.91,0,1.64-.28,2.18-.84s.82-1.31.82-2.25c0-.65-.16-1.17-.47-1.57-.31-.4-.86-.76-1.65-1.07l-1.7-.72c-.97-.4-1.68-.88-2.12-1.45s-.67-1.25-.67-2.08c0-1.19.41-2.16,1.23-2.92.82-.76,1.89-1.13,3.2-1.13.57,0,1.11.06,1.63.19.52.13,1.04.32,1.56.58-.1.23-.2.47-.3.73-.1.26-.19.56-.28.89-.37-.54-.8-.95-1.28-1.21-.49-.27-1.03-.41-1.62-.41-.77,0-1.39.23-1.84.7-.45.47-.68,1.1-.68,1.9,0,.59.16,1.08.49,1.47.32.39.87.76,1.64,1.09l1.7.74c1,.42,1.71.92,2.14,1.49.43.57.64,1.29.64,2.16,0,1.36-.46,2.46-1.37,3.29-.92.83-2.13,1.25-3.63,1.25-.69,0-1.33-.1-1.93-.29-.59-.19-1.13-.47-1.6-.83Z"/>
    <path d="m160.89,48.03c.06-.88.11-1.91.14-3.09.03-1.18.04-2.59.04-4.24,0-1.52-.01-2.84-.04-3.98-.03-1.13-.08-2.15-.14-3.04.29.01.62.02.96.03s.89,0,1.63,0c.96,0,1.81,0,2.56,0s1.5-.02,2.27-.03c0,.06,0,.16-.01.3s-.01.24-.01.32c0,.06,0,.16.01.3s.01.24.01.31c-.79-.07-1.61-.12-2.44-.15-.84-.03-1.68-.05-2.54-.05h-.5c0,.81-.01,1.59-.02,2.33,0,.74,0,1.44,0,2.1v.84h.37c.64,0,1.34-.02,2.11-.05.77-.03,1.59-.07,2.46-.12-.01.15-.02.27-.03.37s-.01.19-.01.28c0,.08,0,.16.01.25,0,.09.02.2.03.34-.34-.06-.76-.1-1.26-.13-.5-.02-1.41-.04-2.72-.04h-.97v1c0,1.2,0,2.17,0,2.92,0,.75,0,1.49.02,2.21h.52c.6,0,1.34-.02,2.21-.06.87-.04,1.81-.1,2.83-.17,0,.07,0,.17-.01.31,0,.14-.01.25-.01.32,0,.07,0,.17.01.31,0,.14.01.24.01.31-.4-.01-.84-.02-1.33-.03-.49,0-1.25,0-2.27,0s-1.83,0-2.38,0c-.54,0-1.05.02-1.52.03Z"/>
    <path d="m188.08,47.13c-.53.39-1.18.68-1.97.88-.79.2-1.7.3-2.72.3-2.33,0-4.14-.65-5.41-1.95-1.28-1.3-1.92-3.13-1.92-5.49s.71-4.08,2.12-5.43c1.41-1.35,3.3-2.02,5.68-2.02.83,0,1.62.08,2.38.25.76.17,1.47.42,2.13.75-.11.36-.19.71-.25,1.04-.06.33-.09.66-.09.98-.5-.78-1.09-1.35-1.77-1.71s-1.5-.54-2.46-.54c-1.76,0-3.13.59-4.11,1.76-.97,1.17-1.46,2.82-1.46,4.95s.48,3.67,1.45,4.84c.97,1.18,2.29,1.77,3.96,1.77.79,0,1.57-.15,2.35-.45.78-.3,1.52-.74,2.24-1.31l-.13,1.38Z"/>
    <path d="m190.86,48.03c.03-1.23.06-2.44.09-3.62.02-1.18.04-2.36.04-3.54,0-1.31-.01-2.54-.03-3.71s-.05-2.33-.1-3.48c.16.03.32.05.47.06.16.01.33.02.53.02.18,0,.35,0,.51-.02.16-.01.31-.03.46-.06-.06,1.37-.1,2.68-.14,3.94-.03,1.26-.05,2.43-.05,3.52s0,2.17.03,3.13c.02.96.05,1.88.09,2.78.15,0,.32.01.51.02.19,0,.49,0,.92,0,.92,0,1.73-.03,2.44-.08.71-.05,1.32-.13,1.84-.24,0,.06,0,.16-.01.3,0,.14-.01.25-.01.33,0,.06,0,.16.01.31,0,.14,0,.26,0,.34-1.24-.02-2.26-.04-3.07-.05-.81-.01-1.4-.02-1.79-.02-.5,0-.98,0-1.43.02-.46,0-.89.03-1.3.05Z"/>
    <path d="m201.2,48.03c.05-.68.08-1.44.1-2.28.02-.84.03-1.88.03-3.13v-1.74c0-2.24-.01-3.82-.03-4.75-.02-.93-.05-1.74-.1-2.44.14.03.29.05.45.06.15.01.32.02.51.02s.36,0,.52-.02c.16-.01.32-.03.49-.06-.05.47-.08,1.02-.1,1.65-.02.63-.03,1.45-.03,2.47v6.53c0,1.11,0,1.91.03,2.39.02.49.05.92.1,1.3-.15-.03-.3-.05-.46-.06s-.32-.02-.5-.02-.36,0-.52.02-.32.03-.47.06Z"/>
    <path d="m217.94,47.13c-.53.39-1.18.68-1.97.88-.79.2-1.7.3-2.72.3-2.33,0-4.14-.65-5.41-1.95-1.28-1.3-1.92-3.13-1.92-5.49s.71-4.08,2.12-5.43c1.41-1.35,3.3-2.02,5.68-2.02.83,0,1.62.08,2.38.25.76.17,1.47.42,2.13.75-.11.36-.19.71-.25,1.04-.06.33-.09.66-.09.98-.5-.78-1.09-1.35-1.77-1.71s-1.5-.54-2.46-.54c-1.76,0-3.13.59-4.11,1.76-.97,1.17-1.46,2.82-1.46,4.95s.48,3.67,1.45,4.84c.97,1.18,2.29,1.77,3.96,1.77.79,0,1.57-.15,2.35-.45.78-.3,1.52-.74,2.24-1.31l-.13,1.38Z"/>
    <path d="m220.66,48.03c.06-.79.11-1.66.14-2.61.03-.95.05-2.16.05-3.6,0-1.86-.02-3.45-.05-4.78-.03-1.33-.08-2.45-.14-3.35.14.03.29.05.44.06.15.01.32.02.49.02.2,0,.38,0,.55-.02.17-.01.33-.03.49-.06-.04.45-.07.96-.1,1.53s-.04,1.19-.04,1.88v3.21s.03.04.04.05.04,0,.07,0c.29,0,1.04-.6,2.24-1.81,1.2-1.21,2.64-2.83,4.34-4.87.14.03.29.05.44.06.15.01.31.02.49.02s.34,0,.5-.02c.15-.01.3-.03.45-.06-.54.41-1.59,1.4-3.15,2.96l-.38.38-3.09,3.04c1,1.27,2.83,3.41,5.47,6.41l1.35,1.55c-.23-.03-.44-.06-.65-.08-.21-.02-.4-.03-.58-.03s-.38,0-.58.03c-.19.02-.39.04-.6.08-.51-.7-.96-1.31-1.36-1.85s-.77-1-1.1-1.4l-2.41-2.98c-.32-.38-.59-.64-.81-.79-.22-.15-.44-.23-.67-.25v2.5c-.01,1.02,0,1.9.02,2.65.02.75.06,1.45.1,2.12-.18-.03-.36-.06-.52-.08-.17-.02-.33-.03-.48-.03s-.3,0-.45.03c-.15.02-.32.04-.5.08Z"/>
    <path d="m238.63,48.03c.06-.98.11-2.09.14-3.33.03-1.24.05-2.7.05-4.4s-.02-3.12-.05-4.09c-.03-.97-.08-1.81-.15-2.52.18.03.36.05.52.06s.35.02.53.02.36,0,.52-.02.33-.03.48-.06c-.07.38-.12.89-.15,1.55s-.04,1.92-.04,3.78v.82c.51,0,1.06.01,1.66.02.6,0,1.49,0,2.68,0s2.07,0,2.67,0c.6,0,1.15,0,1.66-.02v-.82c0-.98-.02-1.92-.05-2.79-.03-.88-.08-1.72-.14-2.54.15.03.3.05.46.06s.34.02.54.02.38,0,.55-.02.34-.03.5-.06c-.07.86-.11,1.79-.14,2.79-.03,1.01-.04,2.28-.04,3.83,0,1.35.01,2.66.04,3.94.03,1.28.08,2.54.14,3.79-.17-.03-.34-.05-.52-.06-.18-.01-.36-.02-.56-.02-.18,0-.35,0-.52.02s-.32.03-.46.06c.06-.85.11-1.82.14-2.89.03-1.07.05-2.2.05-3.39v-.98c-.72-.03-1.45-.05-2.17-.06-.72,0-1.44-.02-2.16-.02s-1.44,0-2.16.02c-.72.01-1.45.03-2.17.05v.99c0,2.25.01,3.76.04,4.52.03.77.07,1.35.15,1.75-.17-.03-.35-.05-.52-.06s-.36-.02-.55-.02c-.18,0-.35,0-.52.02s-.32.03-.46.06Z"/>
    <path d="m254.7,48.03c.06-.88.11-1.91.14-3.09.03-1.18.04-2.59.04-4.24,0-1.52-.01-2.84-.04-3.98-.03-1.13-.08-2.15-.14-3.04.29.01.62.02.96.03s.89,0,1.63,0c.96,0,1.81,0,2.56,0s1.5-.02,2.27-.03c0,.06,0,.16-.01.3s-.01.24-.01.32c0,.06,0,.16.01.3s.01.24.01.31c-.79-.07-1.61-.12-2.44-.15-.84-.03-1.68-.05-2.54-.05h-.5c0,.81-.01,1.59-.02,2.33,0,.74,0,1.44,0,2.1v.84h.37c.64,0,1.34-.02,2.11-.05.77-.03,1.59-.07,2.46-.12-.01.15-.02.27-.03.37s-.01.19-.01.28c0,.08,0,.16.01.25,0,.09.02.2.03.34-.34-.06-.76-.1-1.26-.13-.5-.02-1.41-.04-2.72-.04h-.97v1c0,1.2,0,2.17,0,2.92,0,.75,0,1.49.02,2.21h.52c.6,0,1.34-.02,2.21-.06.87-.04,1.81-.1,2.83-.17,0,.07,0,.17-.01.31,0,.14-.01.25-.01.32,0,.07,0,.17.01.31,0,.14.01.24.01.31-.4-.01-.84-.02-1.33-.03-.49,0-1.25,0-2.27,0s-1.83,0-2.38,0c-.54,0-1.05.02-1.52.03Z"/>
    <path d="m265.16,48.03c.04-.74.07-1.58.09-2.53.02-.95.03-2.49.03-4.62,0-1.81-.01-3.27-.03-4.36-.02-1.1-.05-2.04-.1-2.83.05,0,.12.01.21.01.38.02.64.03.77.03.26,0,.76-.01,1.51-.04.75-.03,1.36-.04,1.85-.04,1.59,0,2.77.28,3.55.85.78.56,1.17,1.42,1.17,2.56,0,.99-.36,1.83-1.09,2.5-.73.68-1.77,1.14-3.11,1.38,1,1.33,2.77,3.56,5.31,6.7l.32.4c-.23-.03-.45-.06-.66-.08-.21-.02-.41-.03-.6-.03s-.39,0-.58.03c-.2.02-.41.04-.64.07-.54-.79-1.02-1.48-1.44-2.06-.42-.59-.81-1.12-1.17-1.59l-2.3-2.94c-.12-.16-.24-.28-.37-.35-.13-.07-.28-.11-.46-.11-.08,0-.2,0-.35.03-.03,0-.04,0-.05,0v3.85c0,.47.01.97.03,1.5.02.53.05,1.08.08,1.67-.18-.03-.36-.06-.51-.08-.16-.02-.31-.03-.46-.03s-.31,0-.47.03c-.16.02-.33.04-.51.08Zm1.85-7.67c.09.01.18.02.28.03.1,0,.23,0,.41,0,1.57,0,2.75-.26,3.52-.77.78-.51,1.16-1.29,1.16-2.33,0-.94-.3-1.65-.91-2.13-.6-.48-1.51-.72-2.7-.72-.22,0-.65.02-1.29.06-.15,0-.27.01-.35.02-.04.31-.07.65-.09.99s-.03.73-.03,1.15v3.69Z"/>
    <path d="m277.59,48.03c.06-.88.11-1.91.14-3.09.03-1.18.04-2.59.04-4.24,0-1.52-.01-2.84-.04-3.98-.03-1.13-.08-2.15-.14-3.04.29.01.62.02.96.03s.89,0,1.63,0c.96,0,1.81,0,2.56,0s1.5-.02,2.27-.03c0,.06,0,.16-.01.3s-.01.24-.01.32c0,.06,0,.16.01.3s.01.24.01.31c-.79-.07-1.61-.12-2.44-.15-.84-.03-1.68-.05-2.54-.05h-.5c0,.81-.01,1.59-.02,2.33,0,.74,0,1.44,0,2.1v.84h.37c.64,0,1.34-.02,2.11-.05.77-.03,1.59-.07,2.46-.12-.01.15-.02.27-.03.37s-.01.19-.01.28c0,.08,0,.16.01.25,0,.09.02.2.03.34-.34-.06-.76-.1-1.26-.13-.5-.02-1.41-.04-2.72-.04h-.97v1c0,1.2,0,2.17,0,2.92,0,.75,0,1.49.02,2.21h.52c.6,0,1.34-.02,2.21-.06.87-.04,1.81-.1,2.83-.17,0,.07,0,.17-.01.31,0,.14-.01.25-.01.32,0,.07,0,.17.01.31,0,.14.01.24.01.31-.4-.01-.84-.02-1.33-.03-.49,0-1.25,0-2.27,0s-1.83,0-2.38,0c-.54,0-1.05.02-1.52.03Z"/>
    <path d="m293.76,48.03c.06-.73.11-1.53.14-2.4s.04-1.85.04-2.93c0-1.5-.01-3.01-.04-4.51-.03-1.5-.07-3-.13-4.51.27.01.59.02.97.03s1.01,0,1.89,0c1.04,0,1.9,0,2.59,0s1.37-.02,2.05-.03c0,.08,0,.19,0,.35s0,.27,0,.35,0,.19,0,.33c0,.15,0,.26,0,.33-.46-.1-1.09-.18-1.87-.24s-1.84-.09-3.18-.11h-.5c-.02.4-.04.82-.05,1.26,0,.44-.02,1.08-.02,1.91v2.1h1.67c.67,0,1.29-.01,1.86-.04s1.13-.07,1.69-.13c0,.07,0,.15-.01.24s-.01.22-.01.4c0,.16,0,.29,0,.36,0,.08,0,.15.02.22-1.15-.06-2.09-.1-2.83-.13-.73-.02-1.33-.04-1.79-.04h-.6v4.83c0,.77,0,1.31.02,1.6.01.3.03.54.07.74-.17-.03-.33-.05-.51-.06-.17-.01-.36-.02-.56-.02-.17,0-.33,0-.48.02-.15.01-.29.03-.43.06Z"/>
    <path d="m310.86,48.33c-2.4,0-4.29-.66-5.68-1.99-1.38-1.33-2.08-3.14-2.08-5.44s.7-4.07,2.11-5.42,3.29-2.03,5.64-2.03,4.26.67,5.64,2.01c1.38,1.34,2.08,3.16,2.08,5.45s-.71,4.02-2.12,5.38c-1.42,1.37-3.28,2.05-5.6,2.05Zm0-.8c1.8,0,3.19-.58,4.17-1.73.97-1.15,1.46-2.79,1.46-4.93s-.48-3.83-1.44-4.95c-.96-1.13-2.35-1.69-4.19-1.69s-3.21.58-4.18,1.75c-.98,1.17-1.47,2.83-1.47,4.97s.49,3.74,1.46,4.88c.97,1.13,2.37,1.7,4.19,1.7Z"/>
    <path d="m321.38,48.03c.04-.74.07-1.58.09-2.53.02-.95.03-2.49.03-4.62,0-1.81-.01-3.27-.03-4.36-.02-1.1-.05-2.04-.1-2.83.05,0,.12.01.21.01.38.02.64.03.77.03.26,0,.76-.01,1.51-.04.74-.03,1.36-.04,1.85-.04,1.59,0,2.77.28,3.55.85.78.56,1.17,1.42,1.17,2.56,0,.99-.36,1.83-1.09,2.5-.73.68-1.77,1.14-3.11,1.38,1,1.33,2.77,3.56,5.31,6.7l.32.4c-.23-.03-.45-.06-.66-.08-.21-.02-.41-.03-.61-.03s-.39,0-.58.03c-.2.02-.41.04-.64.07-.54-.79-1.02-1.48-1.44-2.06-.42-.59-.81-1.12-1.17-1.59l-2.3-2.94c-.12-.16-.24-.28-.37-.35-.13-.07-.28-.11-.46-.11-.08,0-.2,0-.35.03-.03,0-.04,0-.05,0v3.85c0,.47.01.97.03,1.5.02.53.05,1.08.08,1.67-.18-.03-.36-.06-.51-.08-.16-.02-.31-.03-.46-.03s-.31,0-.47.03c-.16.02-.33.04-.51.08Zm1.85-7.67c.09.01.18.02.28.03.1,0,.23,0,.4,0,1.57,0,2.75-.26,3.52-.77.78-.51,1.16-1.29,1.16-2.33,0-.94-.3-1.65-.91-2.13-.61-.48-1.51-.72-2.7-.72-.22,0-.65.02-1.29.06-.15,0-.27.01-.35.02-.04.31-.07.65-.09.99-.02.35-.03.73-.03,1.15v3.69Z"/>
    <path d="m342.44,48.03c.04-1.73.07-3.42.09-5.06.02-1.64.03-3.24.03-4.79v-3.51h-.56c-.83,0-1.57.02-2.22.07-.65.04-1.2.11-1.65.19.01-.14.02-.25.03-.34,0-.09,0-.17,0-.25,0-.08,0-.17,0-.27,0-.1-.02-.23-.03-.38.8.02,1.62.04,2.45.05.83,0,1.69.02,2.57.02s1.81,0,2.73-.02c.93-.01,1.88-.03,2.86-.04-.01.06-.02.13-.03.22,0,.08-.01.21-.01.39s0,.3.01.39c0,.09.02.17.03.24-.48-.09-1.02-.15-1.62-.19s-1.3-.06-2.09-.06h-.62c-.03.61-.06,1.28-.08,2.03-.02.75-.03,1.64-.03,2.68,0,1.33.01,2.72.03,4.17.02,1.45.05,2.94.09,4.48-.16-.02-.31-.04-.47-.05-.16-.01-.32-.02-.49-.02-.16,0-.32,0-.49.02-.17,0-.35.03-.53.05Z"/>
    <path d="m351.03,48.03c.06-.98.11-2.09.14-3.33.03-1.24.05-2.7.05-4.4s-.02-3.12-.05-4.09c-.03-.97-.08-1.81-.15-2.52.18.03.36.05.52.06s.35.02.53.02.36,0,.52-.02.33-.03.48-.06c-.07.38-.12.89-.15,1.55-.03.66-.04,1.92-.04,3.78v.82c.51,0,1.06.01,1.66.02.6,0,1.49,0,2.68,0s2.07,0,2.67,0c.6,0,1.15,0,1.66-.02v-.82c0-.98-.02-1.92-.04-2.79-.03-.88-.08-1.72-.14-2.54.14.03.3.05.46.06s.34.02.54.02.38,0,.55-.02.34-.03.51-.06c-.07.86-.11,1.79-.14,2.79-.03,1.01-.04,2.28-.04,3.83,0,1.35.02,2.66.04,3.94.03,1.28.08,2.54.14,3.79-.17-.03-.34-.05-.52-.06-.18-.01-.36-.02-.56-.02-.18,0-.35,0-.52.02-.17.01-.32.03-.46.06.06-.85.11-1.82.14-2.89.03-1.07.04-2.2.04-3.39v-.98c-.72-.03-1.45-.05-2.17-.06-.72,0-1.44-.02-2.16-.02s-1.44,0-2.16.02c-.72.01-1.45.03-2.17.05v.99c0,2.25.01,3.76.04,4.52.03.77.08,1.35.15,1.75-.17-.03-.35-.05-.52-.06s-.36-.02-.55-.02c-.18,0-.35,0-.52.02s-.32.03-.46.06Z"/>
    <path d="m367.1,48.03c.07-.88.11-1.91.14-3.09.03-1.18.04-2.59.04-4.24,0-1.52-.02-2.84-.04-3.98-.03-1.13-.08-2.15-.14-3.04.29.01.62.02.96.03s.89,0,1.63,0c.96,0,1.81,0,2.55,0,.74,0,1.5-.02,2.27-.03,0,.06,0,.16,0,.3,0,.14-.01.24-.01.32,0,.06,0,.16.01.3,0,.14,0,.24,0,.31-.79-.07-1.61-.12-2.45-.15-.83-.03-1.68-.05-2.54-.05h-.5c0,.81-.01,1.59-.01,2.33,0,.74,0,1.44,0,2.1v.84h.37c.64,0,1.34-.02,2.11-.05.77-.03,1.59-.07,2.46-.12-.01.15-.02.27-.03.37s-.01.19-.01.28c0,.08,0,.16.01.25,0,.09.02.2.03.34-.33-.06-.75-.1-1.26-.13-.5-.02-1.41-.04-2.72-.04h-.96v1c0,1.2,0,2.17,0,2.92,0,.75,0,1.49.01,2.21h.52c.6,0,1.34-.02,2.21-.06s1.81-.1,2.83-.17c0,.07,0,.17,0,.31,0,.14-.01.25-.01.32,0,.07,0,.17.01.31,0,.14,0,.24,0,.31-.4-.01-.84-.02-1.33-.03-.49,0-1.25,0-2.27,0s-1.83,0-2.38,0c-.54,0-1.05.02-1.52.03Z"/>
    <path d="m383.31,48.03c.04-.74.07-1.58.09-2.53.02-.95.03-2.49.03-4.62,0-1.81-.01-3.27-.03-4.36-.02-1.1-.05-2.04-.1-2.83.05,0,.12.01.21.01.38.02.64.03.77.03.26,0,.76-.01,1.51-.04.74-.03,1.36-.04,1.85-.04,1.59,0,2.77.28,3.55.85.78.56,1.17,1.42,1.17,2.56,0,.99-.36,1.83-1.09,2.5-.73.68-1.77,1.14-3.11,1.38,1,1.33,2.77,3.56,5.31,6.7l.32.4c-.23-.03-.45-.06-.66-.08-.21-.02-.41-.03-.61-.03s-.39,0-.58.03c-.2.02-.41.04-.64.07-.54-.79-1.02-1.48-1.44-2.06-.42-.59-.81-1.12-1.17-1.59l-2.3-2.94c-.12-.16-.24-.28-.37-.35-.13-.07-.28-.11-.46-.11-.08,0-.2,0-.35.03-.03,0-.04,0-.05,0v3.85c0,.47.01.97.03,1.5.02.53.05,1.08.08,1.67-.18-.03-.36-.06-.51-.08-.16-.02-.31-.03-.46-.03s-.31,0-.47.03c-.16.02-.33.04-.51.08Zm1.85-7.67c.09.01.18.02.28.03.1,0,.23,0,.4,0,1.57,0,2.75-.26,3.52-.77.78-.51,1.16-1.29,1.16-2.33,0-.94-.3-1.65-.91-2.13-.61-.48-1.51-.72-2.7-.72-.22,0-.65.02-1.29.06-.15,0-.27.01-.35.02-.04.31-.07.65-.09.99-.02.35-.03.73-.03,1.15v3.69Z"/>
    <path d="m395.75,48.03c.06-.88.11-1.91.14-3.09.03-1.18.04-2.59.04-4.24,0-1.52-.01-2.84-.04-3.98-.03-1.13-.08-2.15-.14-3.04.29.01.62.02.96.03s.89,0,1.63,0c.96,0,1.81,0,2.56,0,.74,0,1.5-.02,2.27-.03,0,.06,0,.16-.01.3,0,.14,0,.24,0,.32,0,.06,0,.16,0,.3,0,.14.01.24.01.31-.79-.07-1.61-.12-2.44-.15-.84-.03-1.68-.05-2.54-.05h-.5c0,.81-.01,1.59-.02,2.33,0,.74,0,1.44,0,2.1v.84h.37c.64,0,1.34-.02,2.11-.05.77-.03,1.59-.07,2.46-.12-.01.15-.02.27-.03.37s0,.19,0,.28c0,.08,0,.16,0,.25,0,.09.02.2.03.34-.34-.06-.76-.1-1.26-.13-.5-.02-1.41-.04-2.72-.04h-.97v1c0,1.2,0,2.17,0,2.92,0,.75,0,1.49.02,2.21h.52c.6,0,1.34-.02,2.21-.06.87-.04,1.81-.1,2.83-.17,0,.07,0,.17-.01.31,0,.14,0,.25,0,.32,0,.07,0,.17,0,.31,0,.14.01.24.01.31-.4-.01-.84-.02-1.33-.03-.49,0-1.25,0-2.27,0s-1.83,0-2.38,0c-.54,0-1.05.02-1.52.03Z"/>
    <path d="m413.79,48.27c-.27.02-.51.04-.71.05-.2,0-.37.01-.51.01-1.07,0-2.06-.17-2.96-.52-.9-.34-1.69-.85-2.37-1.52-.71-.68-1.24-1.47-1.57-2.35-.34-.88-.51-1.9-.51-3.04,0-2.26.7-4.07,2.11-5.42s3.29-2.03,5.64-2.03,4.26.67,5.64,2.01c1.38,1.34,2.08,3.16,2.08,5.45,0,1.78-.45,3.28-1.36,4.51s-2.2,2.11-3.89,2.62c.72.55,1.51,1.14,2.36,1.75.85.61,1.76,1.25,2.74,1.9-.27.1-.53.23-.79.38-.26.15-.52.34-.79.57-.85-.83-1.71-1.6-2.56-2.33-.85-.73-1.7-1.41-2.56-2.04Zm-.88-.74c1.81,0,3.21-.58,4.18-1.73.98-1.15,1.47-2.79,1.47-4.93s-.48-3.83-1.45-4.96-2.37-1.7-4.2-1.7-3.2.59-4.18,1.76c-.98,1.17-1.47,2.83-1.47,4.99s.49,3.74,1.46,4.88c.97,1.13,2.37,1.7,4.19,1.7Z"/>
    <path d="m423.41,33.69c.14.03.29.05.44.06s.31.02.48.02c.21,0,.39,0,.54-.03.16-.02.31-.04.45-.07-.03,1.79-.05,3.39-.06,4.8s-.02,2.36-.02,2.84c0,1.29.08,2.27.24,2.93.16.66.43,1.21.81,1.67.38.47.87.82,1.46,1.06.59.24,1.25.36,1.99.36s1.4-.13,2-.38,1.09-.62,1.47-1.09c.38-.47.64-1.07.79-1.8.15-.73.23-2,.23-3.8,0-1.2,0-2.34-.02-3.42-.01-1.08-.03-2.13-.06-3.15.1.03.21.05.31.06s.22.02.33.02c.14,0,.26,0,.37-.02.11-.02.22-.04.32-.06-.04.84-.06,1.6-.08,2.3-.02.7-.03,1.21-.03,1.52v.54c0,2.67-.06,4.49-.19,5.46s-.35,1.73-.67,2.29c-.48.83-1.16,1.45-2.01,1.87-.86.42-1.9.63-3.11.63-2.08,0-3.6-.5-4.55-1.51-.96-1.01-1.44-2.61-1.44-4.81,0-.08.02-.6.05-1.57.03-.96.05-1.88.05-2.76,0-.66-.02-1.79-.07-3.39,0-.25-.01-.44-.02-.57Z"/>
    <path d="m439.11,48.03c.06-.88.11-1.91.14-3.09.03-1.18.04-2.59.04-4.24,0-1.52-.01-2.84-.04-3.98-.03-1.13-.08-2.15-.14-3.04.29.01.62.02.96.03.35,0,.89,0,1.63,0,.96,0,1.81,0,2.55,0s1.5-.02,2.27-.03c0,.06,0,.16-.01.3s-.01.24-.01.32c0,.06,0,.16.01.3s.01.24.01.31c-.79-.07-1.61-.12-2.45-.15-.84-.03-1.68-.05-2.54-.05h-.5c0,.81-.01,1.59-.02,2.33s0,1.44,0,2.1v.84h.37c.64,0,1.34-.02,2.11-.05.77-.03,1.59-.07,2.46-.12-.01.15-.02.27-.03.37,0,.1,0,.19,0,.28,0,.08,0,.16,0,.25,0,.09.02.2.03.34-.34-.06-.76-.1-1.26-.13-.5-.02-1.41-.04-2.72-.04h-.97v1c0,1.2,0,2.17,0,2.92,0,.75,0,1.49.02,2.21h.52c.6,0,1.34-.02,2.21-.06.87-.04,1.81-.1,2.84-.17,0,.07,0,.17-.01.31,0,.14-.01.25-.01.32,0,.07,0,.17.01.31,0,.14.01.24.01.31-.4-.01-.84-.02-1.33-.03-.49,0-1.25,0-2.27,0s-1.83,0-2.38,0c-.54,0-1.05.02-1.52.03Z"/>
    <path d="m448.54,47.19c.12-.37.22-.74.3-1.11.08-.37.13-.74.16-1.11.31.79.77,1.4,1.38,1.84.61.44,1.31.66,2.09.66.91,0,1.64-.28,2.18-.84s.82-1.31.82-2.25c0-.65-.16-1.17-.47-1.57-.31-.4-.86-.76-1.65-1.07l-1.7-.72c-.97-.4-1.68-.88-2.12-1.45-.45-.56-.67-1.25-.67-2.08,0-1.19.41-2.16,1.23-2.92.82-.76,1.89-1.13,3.2-1.13.57,0,1.11.06,1.63.19.52.13,1.04.32,1.56.58-.1.23-.2.47-.3.73-.1.26-.19.56-.28.89-.37-.54-.8-.95-1.28-1.21-.49-.27-1.03-.41-1.62-.41-.77,0-1.39.23-1.84.7-.46.47-.68,1.1-.68,1.9,0,.59.16,1.08.49,1.47.32.39.87.76,1.64,1.09l1.7.74c1,.42,1.71.92,2.14,1.49.43.57.64,1.29.64,2.16,0,1.36-.46,2.46-1.38,3.29-.92.83-2.12,1.25-3.63,1.25-.69,0-1.33-.1-1.93-.29-.6-.19-1.13-.47-1.6-.83Z"/>
    <path d="m462.68,48.03c.04-1.73.07-3.42.09-5.06.02-1.64.03-3.24.03-4.79v-3.51h-.56c-.83,0-1.57.02-2.22.07-.65.04-1.19.11-1.65.19.01-.14.02-.25.03-.34,0-.09.01-.17.01-.25,0-.08,0-.17-.01-.27,0-.1-.02-.23-.03-.38.8.02,1.61.04,2.45.05.83,0,1.69.02,2.57.02s1.81,0,2.73-.02c.93-.01,1.88-.03,2.86-.04-.01.06-.02.13-.03.22,0,.08,0,.21,0,.39s0,.3,0,.39c0,.09.02.17.03.24-.48-.09-1.02-.15-1.62-.19s-1.3-.06-2.09-.06h-.62c-.03.61-.06,1.28-.08,2.03-.02.75-.03,1.64-.03,2.68,0,1.33,0,2.72.03,4.17.02,1.45.05,2.94.09,4.48-.16-.02-.31-.04-.47-.05-.16-.01-.32-.02-.49-.02-.16,0-.32,0-.49.02-.17,0-.35.03-.53.05Z"/>
    <path d="m471.25,48.03c.07-.88.11-1.91.14-3.09.03-1.18.04-2.59.04-4.24,0-1.52-.01-2.84-.04-3.98-.03-1.13-.08-2.15-.14-3.04.29.01.62.02.96.03.35,0,.89,0,1.63,0,.96,0,1.81,0,2.56,0s1.5-.02,2.27-.03c0,.06,0,.16,0,.3s0,.24,0,.32c0,.06,0,.16,0,.3s0,.24,0,.31c-.79-.07-1.61-.12-2.44-.15-.83-.03-1.68-.05-2.54-.05h-.5c0,.81-.01,1.59-.01,2.33,0,.74,0,1.44,0,2.1v.84h.37c.64,0,1.34-.02,2.11-.05.77-.03,1.59-.07,2.46-.12-.01.15-.02.27-.03.37,0,.1-.01.19-.01.28,0,.08,0,.16.01.25,0,.09.02.2.03.34-.33-.06-.75-.1-1.26-.13-.5-.02-1.41-.04-2.72-.04h-.97v1c0,1.2,0,2.17,0,2.92,0,.75,0,1.49.01,2.21h.52c.6,0,1.34-.02,2.21-.06.87-.04,1.81-.1,2.83-.17,0,.07,0,.17,0,.31,0,.14,0,.25,0,.32,0,.07,0,.17,0,.31,0,.14,0,.24,0,.31-.4-.01-.84-.02-1.33-.03-.49,0-1.25,0-2.27,0s-1.83,0-2.38,0c-.54,0-1.05.02-1.52.03Z"/>
    <path d="m481.66,48.03c.04-.79.06-1.67.07-2.65.01-.97.02-2.47.02-4.51s0-3.65-.02-4.61c0-.96-.03-1.82-.06-2.58.33.01.62.02.87.03s.48,0,.7,0c.28,0,.87-.02,1.78-.05.9-.03,1.67-.05,2.29-.05,1.2,0,2.14.08,2.84.24s1.31.41,1.85.77c.87.59,1.53,1.38,1.99,2.37.46.99.69,2.14.69,3.44,0,2.49-.71,4.38-2.11,5.69-1.41,1.3-3.46,1.95-6.16,1.95-.32,0-.82-.01-1.51-.04s-1.2-.04-1.56-.04c-.11,0-.36,0-.74.02-.39,0-.7.02-.94.03Zm1.9-.9c.45.03.85.06,1.21.08.36.02.69.03.99.03,2.32,0,4.04-.53,5.18-1.58,1.13-1.06,1.7-2.66,1.7-4.81s-.46-3.87-1.39-4.87-2.44-1.5-4.54-1.5c-.58,0-1.13,0-1.64.03-.52.02-1.02.04-1.5.08-.03.88-.06,1.79-.07,2.74s-.02,1.95-.02,3.01c0,1.31,0,2.52.02,3.63s.04,2.17.07,3.18Z"/>
    <path d="m230.55,72.03c.05-.68.08-1.44.1-2.28.02-.84.03-1.88.03-3.13v-1.74c0-2.24-.01-3.82-.03-4.75-.02-.93-.05-1.74-.1-2.44.14.03.29.05.45.06.15.01.32.02.51.02s.36,0,.52-.02c.16-.01.32-.03.49-.06-.05.47-.08,1.02-.1,1.65-.02.63-.03,1.45-.03,2.47v6.53c0,1.11,0,1.91.03,2.39.02.49.05.92.1,1.3-.15-.03-.3-.05-.46-.06s-.32-.02-.5-.02-.36,0-.52.02-.32.03-.47.06Z"/>
    <path d="m236.12,72.02c.09-1.89.16-3.86.21-5.92.05-2.06.07-4.21.07-6.46v-2.22h.39c1.5,1.74,3.07,3.48,4.71,5.24,1.64,1.76,3.5,3.69,5.6,5.8,0-.07,0-.17.01-.32.02-.72.03-1.23.03-1.53,0-1.69-.02-3.29-.05-4.81-.03-1.52-.08-2.89-.14-4.11.19.03.33.05.42.06.09,0,.18.01.26.01.08,0,.17,0,.27-.01.1-.01.23-.03.4-.06-.06,1.6-.1,3.21-.14,4.84-.03,1.63-.05,3.3-.05,5,0,.62,0,1.28.01,1.98s.02,1.63.03,2.79h-.27c-.64-.8-1.4-1.69-2.28-2.67-.88-.98-1.91-2.09-3.09-3.34l-5.08-5.35c0,.16-.02.56-.04,1.2s-.03,1.16-.03,1.55c0,.85.02,1.94.05,3.27.03,1.33.08,3.01.14,5.06-.12-.03-.25-.05-.37-.07-.12-.02-.24-.02-.35-.02s-.22,0-.34.03c-.11.02-.24.04-.39.07Z"/>
    <path d="m251.94,72.03c.06-.73.11-1.53.14-2.4s.04-1.85.04-2.93c0-1.5-.01-3.01-.04-4.51-.03-1.5-.07-3-.13-4.51.27.01.59.02.97.03s1.01,0,1.89,0c1.04,0,1.9,0,2.59,0s1.37-.02,2.05-.03c0,.08,0,.19-.01.35s-.01.27-.01.35,0,.19.01.33c0,.15.01.26.01.33-.46-.1-1.09-.18-1.87-.24s-1.84-.09-3.18-.11h-.5c-.02.4-.04.82-.05,1.26,0,.44-.02,1.08-.02,1.91v2.1h1.67c.67,0,1.29-.01,1.86-.04s1.13-.07,1.69-.13c0,.07,0,.15-.01.24s-.01.22-.01.4c0,.16,0,.29,0,.36,0,.08,0,.15.02.22-1.15-.06-2.09-.1-2.83-.13-.73-.02-1.33-.04-1.79-.04h-.6v4.83c0,.77,0,1.31.02,1.6.01.3.03.54.07.74-.17-.03-.33-.05-.51-.06-.17-.01-.36-.02-.56-.02-.17,0-.33,0-.48.02-.15.01-.29.03-.43.06Z"/>
    <path d="m269.03,72.33c-2.4,0-4.29-.66-5.68-1.99-1.38-1.33-2.08-3.14-2.08-5.44s.7-4.07,2.11-5.42,3.29-2.03,5.64-2.03,4.26.67,5.64,2.01c1.38,1.34,2.08,3.16,2.08,5.45s-.71,4.02-2.12,5.38c-1.42,1.37-3.28,2.05-5.6,2.05Zm0-.8c1.8,0,3.19-.58,4.17-1.73.97-1.15,1.46-2.79,1.46-4.93s-.48-3.83-1.44-4.95c-.96-1.13-2.35-1.69-4.19-1.69s-3.21.58-4.18,1.75c-.98,1.17-1.47,2.83-1.47,4.97s.49,3.74,1.46,4.88c.97,1.13,2.37,1.7,4.19,1.7Z"/>
    <path d="m279.55,72.03c.04-.74.07-1.58.09-2.53.02-.95.03-2.49.03-4.62,0-1.81-.01-3.27-.03-4.36-.02-1.1-.05-2.04-.1-2.83.05,0,.12.01.21.01.38.02.64.03.77.03.26,0,.76-.01,1.51-.04.75-.03,1.36-.04,1.85-.04,1.59,0,2.77.28,3.55.85.78.56,1.17,1.42,1.17,2.56,0,.99-.36,1.83-1.09,2.5-.73.68-1.77,1.14-3.11,1.38,1,1.33,2.77,3.56,5.31,6.7l.32.4c-.23-.03-.45-.06-.66-.08-.21-.02-.41-.03-.6-.03s-.39,0-.58.03c-.2.02-.41.04-.64.07-.54-.79-1.02-1.48-1.44-2.06-.42-.59-.81-1.12-1.17-1.59l-2.3-2.94c-.12-.16-.24-.28-.37-.35-.13-.07-.28-.11-.46-.11-.08,0-.2,0-.35.03-.03,0-.04,0-.05,0v3.85c0,.47.01.97.03,1.5.02.53.05,1.08.08,1.67-.18-.03-.36-.06-.51-.08-.16-.02-.31-.03-.46-.03s-.31,0-.47.03c-.16.02-.33.04-.51.08Zm1.85-7.67c.09.01.18.02.28.03.1,0,.23,0,.41,0,1.57,0,2.75-.26,3.52-.77.78-.51,1.16-1.29,1.16-2.33,0-.94-.3-1.65-.91-2.13-.6-.48-1.51-.72-2.7-.72-.22,0-.65.02-1.29.06-.15,0-.27.01-.35.02-.04.31-.07.65-.09.99s-.03.73-.03,1.15v3.69Z"/>
    <path d="m290.87,72.03c.26-1.16.55-2.83.88-5.03.33-2.2.76-5.39,1.28-9.58h.35c1.24,2.49,2.33,4.63,3.26,6.43s1.81,3.46,2.65,4.97c.92-1.62,1.88-3.36,2.89-5.21,1.01-1.86,2.12-3.92,3.32-6.19h.28c.19,1.85.42,3.9.67,6.16s.58,5.08.98,8.45c-.17-.03-.33-.06-.49-.08-.15-.02-.31-.03-.46-.03s-.29,0-.45.03c-.15.02-.32.04-.49.08-.18-2.46-.37-4.62-.56-6.48-.2-1.86-.38-3.19-.54-4-1.3,2.18-2.43,4.2-3.38,6.05-.95,1.86-1.62,3.32-2,4.4h-.29c-.16-.55-.39-1.16-.69-1.83s-.74-1.52-1.31-2.56l-3.27-6.05c-.32,2.26-.57,4.29-.75,6.09s-.27,3.26-.29,4.37c-.14-.03-.27-.06-.4-.08-.13-.02-.25-.03-.37-.03s-.25,0-.39.03c-.14.02-.29.04-.45.08Z"/>
    <path d="m308.47,72.03c1.31-2.87,2.49-5.49,3.55-7.87,1.05-2.37,2.03-4.62,2.94-6.75h.4c.98,2.46,1.97,4.9,2.99,7.34s2.05,4.86,3.09,7.28c-.18-.03-.36-.05-.53-.07-.17-.02-.33-.03-.5-.03s-.33,0-.51.03c-.17.02-.36.04-.56.08-.25-.77-.52-1.55-.82-2.34-.3-.8-.62-1.6-.96-2.42l-.36-.84c-.31-.01-.64-.02-.99-.03s-.88-.01-1.59-.01-1.27,0-1.62.01-.68.02-.98.03c-.33.77-.67,1.61-1.02,2.5-.35.89-.73,1.93-1.14,3.11-.12-.03-.23-.06-.35-.08-.12-.02-.23-.03-.35-.03-.1,0-.21,0-.33.03-.12.02-.24.04-.36.08Zm3.91-6.53c.08,0,.29,0,.65,0s.67,0,.94,0c.21,0,.63,0,1.26,0s1.15,0,1.56,0l-.36-.92c-.05-.15-.2-.51-.44-1.07-.24-.56-.69-1.64-1.37-3.21l-2.25,5.21Z"/>
    <path d="m325.13,72.03c.04-1.73.07-3.42.09-5.06.02-1.64.03-3.24.03-4.79v-3.51h-.56c-.83,0-1.57.02-2.22.07-.65.04-1.2.11-1.65.19.01-.14.02-.25.03-.34,0-.09,0-.17,0-.25,0-.08,0-.17,0-.27,0-.1-.02-.23-.03-.38.8.02,1.62.04,2.45.05.83,0,1.69.02,2.57.02s1.81,0,2.73-.02c.93-.01,1.88-.03,2.86-.04-.01.06-.02.13-.03.22,0,.08-.01.21-.01.39s0,.3.01.39c0,.09.02.17.03.24-.48-.09-1.02-.15-1.62-.19s-1.3-.06-2.09-.06h-.62c-.03.61-.06,1.28-.08,2.03-.02.75-.03,1.64-.03,2.68,0,1.33.01,2.72.03,4.17.02,1.45.05,2.94.09,4.48-.16-.02-.31-.04-.47-.05-.16-.01-.32-.02-.49-.02-.16,0-.32,0-.49.02-.17,0-.35.03-.53.05Z"/>
    <path d="m333.78,72.03c.05-.68.08-1.44.1-2.28.02-.84.03-1.88.03-3.13v-1.74c0-2.24,0-3.82-.03-4.75-.02-.93-.05-1.74-.1-2.44.14.03.29.05.45.06s.32.02.51.02.36,0,.52-.02.32-.03.49-.06c-.05.47-.08,1.02-.1,1.65-.02.63-.03,1.45-.03,2.47v6.53c0,1.11,0,1.91.03,2.39.02.49.05.92.1,1.3-.15-.03-.3-.05-.46-.06-.16-.01-.32-.02-.5-.02s-.36,0-.52.02-.32.03-.47.06Z"/>
    <path d="m346.23,72.33c-2.4,0-4.29-.66-5.68-1.99-1.38-1.33-2.08-3.14-2.08-5.44s.7-4.07,2.11-5.42,3.29-2.03,5.64-2.03,4.26.67,5.64,2.01c1.38,1.34,2.08,3.16,2.08,5.45s-.71,4.02-2.12,5.38c-1.42,1.37-3.28,2.05-5.6,2.05Zm0-.8c1.8,0,3.19-.58,4.17-1.73.97-1.15,1.46-2.79,1.46-4.93s-.48-3.83-1.44-4.95c-.96-1.13-2.36-1.69-4.19-1.69s-3.21.58-4.18,1.75c-.98,1.17-1.47,2.83-1.47,4.97s.49,3.74,1.46,4.88c.97,1.13,2.37,1.7,4.19,1.7Z"/>
    <path d="m356.56,72.02c.09-1.89.16-3.86.21-5.92.05-2.06.07-4.21.07-6.46v-2.22h.39c1.5,1.74,3.08,3.48,4.71,5.24,1.64,1.76,3.51,3.69,5.6,5.8,0-.07,0-.17.01-.32.02-.72.04-1.23.04-1.53,0-1.69-.02-3.29-.05-4.81-.03-1.52-.08-2.89-.14-4.11.19.03.33.05.42.06.09,0,.18.01.26.01.08,0,.17,0,.27-.01.1-.01.23-.03.4-.06-.06,1.6-.1,3.21-.14,4.84-.03,1.63-.05,3.3-.05,5,0,.62,0,1.28.01,1.98s.02,1.63.03,2.79h-.27c-.64-.8-1.4-1.69-2.28-2.67-.88-.98-1.91-2.09-3.09-3.34l-5.08-5.35c0,.16-.02.56-.04,1.2-.02.64-.03,1.16-.03,1.55,0,.85.02,1.94.05,3.27.03,1.33.08,3.01.14,5.06-.12-.03-.25-.05-.37-.07-.12-.02-.24-.02-.35-.02s-.22,0-.34.03c-.12.02-.24.04-.39.07Z"/>
  </g>
</svg>